<svg width="187" height="20" viewBox="0 0 187 20" fill="none" xmlns="http://www.w3.org/2000/svg">
<path d="M0 15.2832V1.86523H10.8319V3.00781H1.28659V7.62695H10.3495V8.75977H1.28659V14.1406H10.9738V15.2832H0Z" fill="#9AACB8"/>
<path d="M19.8948 2.97852V15.2832H18.7218V2.97852H12.8091V1.86523H25.8075V2.97852H19.8948Z" fill="#9AACB8"/>
<path d="M41.1898 15.2832V8.7793H29.5442V15.2832H28.3617V1.86523H29.5442V7.64648H41.1898V1.86523H42.3723V15.2832H41.1898Z" fill="#9AACB8"/>
<path d="M46.7524 15.2832V1.86523H57.5843V3.00781H48.039V7.62695H57.1018V8.75977H48.039V14.1406H57.7262V15.2832H46.7524Z" fill="#9AACB8"/>
<path d="M62.5604 9.54102V15.2832H61.3779V1.86523H67.8486C68.8388 1.86523 69.6871 1.94661 70.3934 2.10937C71.0998 2.26562 71.6769 2.50651 72.1247 2.83203C72.5787 3.15104 72.9098 3.55143 73.118 4.0332C73.3261 4.51497 73.4302 5.07812 73.4302 5.72266C73.4302 6.72526 73.1747 7.5293 72.6639 8.13477C72.153 8.73372 71.33 9.14388 70.1948 9.36523L74.6316 15.2832H73.1464L68.9555 9.50195C68.7789 9.51497 68.5991 9.52474 68.4162 9.53125C68.2334 9.53776 68.0441 9.54102 67.8486 9.54102H62.5604ZM72.2098 5.72266C72.2098 5.14974 72.112 4.6875 71.9165 4.33594C71.721 3.97786 71.4025 3.70117 70.961 3.50586C70.5196 3.31055 69.9393 3.18034 69.2204 3.11523C68.5077 3.04362 67.6311 3.00781 66.5904 3.00781H62.5604V8.39844H66.5526C67.5932 8.39844 68.473 8.36914 69.192 8.31055C69.911 8.24544 70.4943 8.11849 70.9421 7.92969C71.3899 7.73437 71.7116 7.46419 71.9071 7.11914C72.1089 6.76758 72.2098 6.30208 72.2098 5.72266Z" fill="#9AACB8"/>
<path d="M84.5554 20V0H85.719V20H84.5554Z" fill="#ABA6C5"/>
<path d="M109.597 15.2832L98.3011 3.4668V15.2832H97.1185V1.86523H98.424L109.72 13.7207V1.86523H110.883V15.2832H109.597Z" fill="#777696"/>
<path d="M130.863 8.58398C130.863 9.78841 130.652 10.8301 130.229 11.709C129.807 12.5814 129.226 13.304 128.489 13.877C127.751 14.4434 126.88 14.8633 125.878 15.1367C124.875 15.4102 123.793 15.5469 122.633 15.5469C121.466 15.5469 120.378 15.4102 119.369 15.1367C118.36 14.8633 117.483 14.4434 116.739 13.877C115.995 13.304 115.411 12.5814 114.989 11.709C114.566 10.8301 114.355 9.78841 114.355 8.58398C114.355 7.7832 114.453 7.05729 114.648 6.40625C114.844 5.7487 115.118 5.16276 115.471 4.64844C115.825 4.1276 116.25 3.67839 116.748 3.30078C117.253 2.92318 117.811 2.61068 118.423 2.36328C119.041 2.10937 119.703 1.92383 120.41 1.80664C121.116 1.68294 121.857 1.62109 122.633 1.62109C123.793 1.62109 124.875 1.75781 125.878 2.03125C126.88 2.30469 127.751 2.72786 128.489 3.30078C129.226 3.86719 129.807 4.58984 130.229 5.46875C130.652 6.34115 130.863 7.37956 130.863 8.58398ZM129.643 8.58398C129.643 7.63346 129.491 6.79362 129.189 6.06445C128.892 5.33529 128.451 4.72331 127.864 4.22852C127.278 3.72721 126.546 3.34961 125.669 3.0957C124.799 2.83529 123.787 2.70508 122.633 2.70508C121.479 2.70508 120.46 2.83529 119.577 3.0957C118.7 3.35612 117.966 3.73698 117.373 4.23828C116.78 4.73307 116.332 5.34831 116.029 6.08398C115.727 6.81315 115.575 7.64648 115.575 8.58398C115.575 9.5345 115.727 10.3743 116.029 11.1035C116.332 11.8327 116.78 12.4479 117.373 12.9492C117.966 13.444 118.7 13.8216 119.577 14.082C120.46 14.3359 121.479 14.4629 122.633 14.4629C123.787 14.4629 124.799 14.3359 125.669 14.082C126.546 13.8216 127.278 13.444 127.864 12.9492C128.451 12.4479 128.892 11.8327 129.189 11.1035C129.491 10.3743 129.643 9.5345 129.643 8.58398Z" fill="#777696"/>
<path d="M135.518 9.54102V15.2832H134.335V1.86523H140.806C141.796 1.86523 142.644 1.94661 143.351 2.10937C144.057 2.26562 144.634 2.50651 145.082 2.83203C145.536 3.15104 145.867 3.55143 146.075 4.0332C146.283 4.51497 146.387 5.07812 146.387 5.72266C146.387 6.72526 146.132 7.5293 145.621 8.13477C145.11 8.73372 144.287 9.14388 143.152 9.36523L147.589 15.2832H146.104L141.913 9.50195C141.736 9.51497 141.556 9.52474 141.373 9.53125C141.19 9.53776 141.001 9.54102 140.806 9.54102H135.518ZM145.167 5.72266C145.167 5.14974 145.069 4.6875 144.874 4.33594C144.678 3.97786 144.36 3.70117 143.918 3.50586C143.477 3.31055 142.896 3.18034 142.178 3.11523C141.465 3.04362 140.588 3.00781 139.548 3.00781H135.518V8.39844H139.51C140.55 8.39844 141.43 8.36914 142.149 8.31055C142.868 8.24544 143.451 8.11849 143.899 7.92969C144.347 7.73437 144.669 7.46419 144.864 7.11914C145.066 6.76758 145.167 6.30208 145.167 5.72266Z" fill="#777696"/>
<path d="M164.664 8.56445C164.664 9.42383 164.576 10.1888 164.4 10.8594C164.229 11.5234 163.986 12.1029 163.671 12.5977C163.356 13.0924 162.971 13.5124 162.517 13.8574C162.069 14.2025 161.568 14.4792 161.013 14.6875C160.464 14.8958 159.865 15.0488 159.215 15.1465C158.572 15.2376 157.894 15.2832 157.181 15.2832H150.474V1.86523H157.162C158.228 1.86523 159.219 1.97266 160.133 2.1875C161.047 2.40234 161.839 2.77018 162.508 3.29102C163.182 3.80534 163.709 4.49219 164.087 5.35156C164.472 6.21094 164.664 7.2819 164.664 8.56445ZM163.444 8.56445C163.444 7.83529 163.375 7.19076 163.236 6.63086C163.097 6.07096 162.899 5.58594 162.64 5.17578C162.381 4.75911 162.066 4.41081 161.694 4.13086C161.322 3.85091 160.902 3.6263 160.436 3.45703C159.969 3.28125 159.461 3.15755 158.913 3.08594C158.364 3.01432 157.781 2.97852 157.162 2.97852H151.657V14.1602H157.162C158.09 14.1602 158.938 14.0755 159.707 13.9062C160.477 13.7305 161.136 13.431 161.684 13.0078C162.239 12.5781 162.671 12.0052 162.981 11.2891C163.29 10.5664 163.444 9.6582 163.444 8.56445Z" fill="#777696"/>
<path d="M168.108 15.2832V1.86523H169.29V15.2832H168.108Z" fill="#777696"/>
<path d="M187 14.2187C186.546 14.4141 186.095 14.5931 185.647 14.7559C185.206 14.9186 184.745 15.0586 184.266 15.1758C183.787 15.293 183.282 15.3841 182.752 15.4492C182.223 15.5143 181.646 15.5469 181.021 15.5469C180.252 15.5469 179.511 15.4818 178.798 15.3516C178.092 15.2214 177.433 15.026 176.821 14.7656C176.209 14.5052 175.654 14.1829 175.156 13.7988C174.658 13.4082 174.229 12.9557 173.869 12.4414C173.516 11.9271 173.242 11.3477 173.046 10.7031C172.857 10.0586 172.762 9.35221 172.762 8.58398C172.762 7.81576 172.857 7.10937 173.046 6.46484C173.242 5.82031 173.516 5.24089 173.869 4.72656C174.229 4.21224 174.658 3.76302 175.156 3.37891C175.654 2.98828 176.209 2.66276 176.821 2.40234C177.433 2.14193 178.092 1.94661 178.798 1.81641C179.504 1.6862 180.245 1.62109 181.021 1.62109C181.646 1.62109 182.223 1.65365 182.752 1.71875C183.282 1.78385 183.787 1.875 184.266 1.99219C184.745 2.10937 185.206 2.24935 185.647 2.41211C186.095 2.56836 186.546 2.74414 187 2.93945V4.4043C186.641 4.16992 186.256 3.94857 185.846 3.74023C185.436 3.5319 184.991 3.34961 184.512 3.19336C184.039 3.03711 183.531 2.91341 182.989 2.82227C182.446 2.73112 181.866 2.68555 181.248 2.68555C179.999 2.68555 178.918 2.82552 178.003 3.10547C177.089 3.38542 176.332 3.78255 175.733 4.29687C175.14 4.80469 174.699 5.42318 174.408 6.15234C174.125 6.875 173.983 7.68555 173.983 8.58398C173.983 9.48242 174.125 10.293 174.408 11.0156C174.699 11.7383 175.14 12.3568 175.733 12.8711C176.332 13.3789 177.089 13.7728 178.003 14.0527C178.918 14.3262 179.999 14.4629 181.248 14.4629C181.866 14.4629 182.45 14.4173 182.998 14.3262C183.553 14.235 184.07 14.1113 184.55 13.9551C185.035 13.7988 185.48 13.6198 185.884 13.418C186.294 13.2096 186.666 12.9915 187 12.7637V14.2187Z" fill="#777696"/>
</svg>
